<svg xmlns="http://www.w3.org/2000/svg" viewBox="0 0 640 160" font-family="system-ui,-apple-system,'Helvetica Neue',Arial,sans-serif">
  <!-- K monogram -->
  <svg x="0" y="0" width="160" height="160" viewBox="0 0 600 600">
    <g transform="translate(0,600) scale(0.1,-0.1)" fill="#D97706" stroke="none">
      <path d="M1600 3055 l0 -1745 340 0 340 0 2 746 3 746 154 -181 c85 -100 157 -180 162 -179 4 2 103 127 220 278 117 151 289 374 383 495 93 121 238 308 321 415 148 191 716 924 843 1088 l64 82 -470 0 -469 0 -168 -222 c-93 -123 -243 -322 -335 -443 -91 -121 -280 -371 -419 -555 -139 -184 -262 -344 -272 -355 -19 -19 -19 -4 -19 778 l0 797 -340 0 -340 0 0 -1745z"/>
      <path d="M2928 2588 l-217 -282 19 -25 c10 -14 78 -96 151 -181 73 -85 253 -298 401 -472 l270 -318 449 0 c247 0 449 3 449 6 0 3 -92 114 -204 247 -198 236 -555 659 -647 768 -25 30 -135 160 -244 289 -108 129 -200 238 -204 242 -4 4 -104 -119 -223 -274z"/>
    </g>
  </svg>
  <!-- Wordmark -->
  <text x="182" y="114" font-weight="700" font-size="92" fill="#0B0F1A" letter-spacing="-2.5">Kairos</text>
</svg>
